<svg id="Layer_1" data-name="Layer 1" xmlns="http://www.w3.org/2000/svg" viewBox="0 0 84.02 93.41"><defs><style>.cls-1{fill-rule:evenodd;}</style></defs><path class="cls-1" d="M20,53A15,15,0,0,1,35,38H65a15,15,0,1,1,0,30H35A15,15,0,0,1,20,53Zm15,6a6,6,0,1,1,6-6A6,6,0,0,1,35,59Zm30,0a6,6,0,1,1,6-6A6,6,0,0,1,65,59Z" transform="translate(-8 -2)"/><path class="cls-1" d="M65,55h0a2,2,0,1,0-2-2,2,2,0,0,0,2,2ZM35,55h0a2,2,0,1,0-2-2,2,2,0,0,0,2,2Z" transform="translate(-8 -2)"/><path class="cls-1" d="M81.14,23.34A30,30,0,0,1,90,43V63s0,20-40,20S10,63,10,63V43a29.93,29.93,0,0,1,8.88-19.67L8.27,5a2,2,0,0,1,3.46-2L22,20.69C27.9,16.29,36.76,13,50,13s22.12,3.29,28,7.7L88.29,3a2,2,0,1,1,3.46,2ZM14,43V63s0,.08,0,.29a8.22,8.22,0,0,0,.38,1.57,13.54,13.54,0,0,0,3.41,5.31C23.25,75.59,33.48,79,50,79s26.75-3.41,32.17-8.83a13.54,13.54,0,0,0,3.41-5.31A8.22,8.22,0,0,0,86,63.29c0-.21,0-.32,0-.29V43c0-.11,0-.42-.06-.91a22.65,22.65,0,0,0-.47-2.91,26.33,26.33,0,0,0-3.8-9C76.19,22,66.2,17,50,17S23.81,22,18.33,30.22a26.33,26.33,0,0,0-3.8,9,22.65,22.65,0,0,0-.47,2.91C14,42.58,14,43,14,43Z" transform="translate(-8 -2)"/><path d="M18.54,89.18v5.17a.45.45,0,0,0,.09.3.64.64,0,0,0,.32.17V95H16.44v-.18a.6.6,0,0,0,.31-.16.5.5,0,0,0,.09-.31V89.18H14.75a.46.46,0,0,0-.31.09.73.73,0,0,0-.17.32H14.1V87.48h.17a.64.64,0,0,0,.17.32.43.43,0,0,0,.3.09h5.9A.48.48,0,0,0,21,87.8a.67.67,0,0,0,.17-.32h.17v2.11h-.17a.73.73,0,0,0-.17-.32.48.48,0,0,0-.31-.09Z" transform="translate(-8 -2)"/><path d="M27.37,92v1.73h4.52a.45.45,0,0,0,.3-.09.62.62,0,0,0,.17-.32h.18v2.11h-.18a.64.64,0,0,0-.17-.32.45.45,0,0,0-.3-.09H25.27v-.18a.6.6,0,0,0,.31-.16.5.5,0,0,0,.09-.31V88.54a.45.45,0,0,0-.09-.3.63.63,0,0,0-.31-.17v-.18h6.42A.46.46,0,0,0,32,87.8a.67.67,0,0,0,.17-.32h.17v2.11h-.17a.67.67,0,0,0-.17-.32.46.46,0,0,0-.31-.09H27.37v1.56h2.68a.45.45,0,0,0,.3-.09.67.67,0,0,0,.18-.32h.17v2h-.17a.6.6,0,0,0-.17-.31.46.46,0,0,0-.31-.09Z" transform="translate(-8 -2)"/><path d="M39,93.71h4a.45.45,0,0,0,.3-.09.56.56,0,0,0,.17-.32h.17v2.11h-.17a.6.6,0,0,0-.17-.32A.45.45,0,0,0,43,95H36.86v-.18a.6.6,0,0,0,.31-.16.5.5,0,0,0,.09-.31V88.54a.51.51,0,0,0-.08-.3.73.73,0,0,0-.32-.17v-.18h2.51v.18a.64.64,0,0,0-.32.17.51.51,0,0,0-.08.3Z" transform="translate(-8 -2)"/><path d="M49.68,93.71h4a.43.43,0,0,0,.3-.09.62.62,0,0,0,.18-.32h.17v2.11h-.17a.67.67,0,0,0-.17-.32.48.48,0,0,0-.31-.09H47.57v-.18a.64.64,0,0,0,.32-.16.5.5,0,0,0,.09-.31V88.54a.45.45,0,0,0-.09-.3.67.67,0,0,0-.32-.17v-.18h2.52v.18a.6.6,0,0,0-.32.17.45.45,0,0,0-.09.3Z" transform="translate(-8 -2)"/><path d="M60.39,88.54v5.81a.45.45,0,0,0,.09.3.64.64,0,0,0,.32.17V95H58.29v-.18a.6.6,0,0,0,.31-.16.5.5,0,0,0,.09-.31V88.54a.51.51,0,0,0-.08-.3.73.73,0,0,0-.32-.17v-.18H60.8v.18a.64.64,0,0,0-.32.17A.45.45,0,0,0,60.39,88.54Z" transform="translate(-8 -2)"/><path d="M67.26,90.32v4a.45.45,0,0,0,.09.3.65.65,0,0,0,.31.17V95H65.3v-.18a.68.68,0,0,0,.32-.16.5.5,0,0,0,.09-.31V88.54a.45.45,0,0,0-.09-.3.73.73,0,0,0-.32-.17v-.18H68v.18c-.18.05-.28.13-.28.25a.53.53,0,0,0,.21.35l3.81,3.79V88.54a.45.45,0,0,0-.09-.3.6.6,0,0,0-.32-.17v-.18h2.36v.18a.6.6,0,0,0-.31.17.45.45,0,0,0-.09.3v5.81a.45.45,0,0,0,.09.3.6.6,0,0,0,.31.17V95H71.18v-.18c.19,0,.28-.11.28-.23a.29.29,0,0,0-.08-.18A4.31,4.31,0,0,0,71,94Z" transform="translate(-8 -2)"/><path d="M83.61,93.22H80.34L80,94a1.09,1.09,0,0,0-.14.44c0,.2.14.33.41.38V95H77.63v-.18a.66.66,0,0,0,.36-.14,1.6,1.6,0,0,0,.27-.43L80.86,89a1.23,1.23,0,0,0,.15-.53c0-.17-.12-.3-.36-.4v-.18h2.76v.18a.47.47,0,0,0-.35.43,1.23,1.23,0,0,0,.16.51l2.69,5.1a2.61,2.61,0,0,0,.35.54.78.78,0,0,0,.39.17V95H83.74v-.18c.28,0,.42-.17.42-.38A1.15,1.15,0,0,0,84,94Zm-.52-1-1.16-2.29-1.11,2.29Z" transform="translate(-8 -2)"/></svg>